<?xml version="1.0" standalone="no"?><!DOCTYPE svg PUBLIC "-//W3C//DTD SVG 1.1//EN" "http://www.w3.org/Graphics/SVG/1.1/DTD/svg11.dtd"><svg t="1605589184894" class="icon" viewBox="0 0 1024 1024" version="1.1" xmlns="http://www.w3.org/2000/svg" p-id="2876" xmlns:xlink="http://www.w3.org/1999/xlink" width="32" height="32"><defs><style type="text/css"></style></defs><path d="M591.9995 67.839576a63.9996 63.9996 0 0 1 20.479872 22.39986c18.559884 31.359804 42.879732 111.9993-8.959944 303.358104l-20.479872 80.639496h360.957744a2124.78672 2124.78672 0 0 1-95.9994 429.437316 268.158324 268.158324 0 0 1-24.959844 56.319648H426.880532a81.279492 81.279492 0 0 1-37.119768-12.159924V440.317248c59.519628-51.19968 198.39876-188.158824 202.878732-362.237736v-10.879932M591.9995 0c-73.59954 0-58.239636 59.519628-63.9996 69.759564 0 191.9988-202.878732 340.477872-202.878732 340.477872v541.436616C325.121168 1004.79372 400.0007 1023.9936 426.880532 1023.9936h409.59744c38.39976 0 69.759564-101.119368 69.759564-101.119368 101.119368-344.957844 101.119368-447.9972 101.119368-447.9972a63.9996 63.9996 0 0 0-63.9996-63.9996h-276.478272C772.478372 19.839876 591.9995 0 591.9995 0zM190.722008 474.237036V959.994H112.0025L80.0027 474.237036h108.79932m22.39986-63.9996H49.922888a33.279792 33.279792 0 0 0-33.919788 33.279792l33.919788 545.916588a33.919788 33.919788 0 0 0 34.559784 34.559784h141.439116c29.439816 0 29.439816-23.039856 29.439816-23.039856V451.837176a40.319748 40.319748 0 0 0-41.59974-41.59974z" p-id="2877" fill="#8a8a8a"></path></svg>