<svg class="icon" viewBox="0 0 1024 1024" xmlns="http://www.w3.org/2000/svg" width="200" height="200"><path d="M967.111 0c-11.32 0-22.186 3.84-30.15 10.724a34.133 34.133 0 0 0-12.516 25.856v950.84c0 20.195 19.114 36.58 42.666 36.58s42.667-16.385 42.667-36.58V36.58c0-20.196-19.115-36.58-42.667-36.58zM50.205 9.5a73.415 73.415 0 0 0-35.982 63.66v877.68a73.415 73.415 0 0 0 35.982 63.659 69.29 69.29 0 0 0 71.595-.939l711.196-438.84v.028a73.586 73.586 0 0 0 34.56-62.72c0-25.713-13.113-49.521-34.56-62.748L121.8 10.44a69.29 69.29 0 0 0-71.595-.94z" fill="#fff"/></svg>